# xmcd
#
# Track frame offsets:
#	150
#	12708
#	26488
#	39569
#	53815
#	66209
#	79981
#	91769
#	106267
#	117548
#	129486
#	141612
#	154542
#	167454
#	180420
#	194482
#	208453
#	222146
#
# Disc length: 3144 seconds
#
# Revision: 1
# Processed by: cddbd v1.5.2PL0 Copyright (c) Steve Scherf et al.
# Submitted via: audiograbber 1.83.01
#
DISCID=040c4612
DTITLE=Roosevelt Sykes - The Honeydripper
DYEAR=2008
DGENRE=Blues
TTITLE0=She's Got What It Takes
TTITLE1=Yellow Yam Blues
TTITLE2=Eight Ball Blues
TTITLE3=Pistol Shootin' Blues
TTITLE4=Right Now
TTITLE5=Essie Mae Blues
TTITLE6=Doin' The Sally Long (Flames Of Evaporation)
TTITLE7=47th Street Jive
TTITLE8=K.M.A. Blues
TTITLE9=Prison Gate Blues
TTITLE10=Low As A Toad
TTITLE11=Let The Black Have His Way
TTITLE12=15c A Day
TTITLE13=Just Hanging Around
TTITLE14=Pay Day Blues
TTITLE15=Keep Your Hands Off Her
TTITLE16=Skin And Bones Blues
TTITLE17=Third Degree Blues
EXTD=Copyright 2008 Acrobat Music Inc.
EXTT0=Roosevelt Sykes
EXTT1=Roosevelt Sykes
EXTT2=Mayo Williams
EXTT3=Roosevelt Sykes
EXTT4=Roosevelt Sykes
EXTT5=Roosevelt Sykes
EXTT6=Roosevelt Sykes
EXTT7=Roosevelt Sykes
EXTT8=Roosevelt Sykes
EXTT9=Roosevelt Sykes
EXTT10=Roosevelt Sykes
EXTT11=Roosevelt Sykes
EXTT12=Roosevelt Sykes
EXTT13=Unidentified
EXTT14=Roosevelt Sykes
EXTT15=Roosevelt Sykes
EXTT16=Roosevelt Sykes
EXTT17=Roosevelt Sykes
PLAYORDER=
